<?xml version="1.0" encoding="UTF-8"?><svg xmlns="http://www.w3.org/2000/svg" width="88" height="31" viewBox="0 0 88 31"><g id="Background"><rect width="88" height="31" fill="#26bd65"/></g><g id="_x33_D"><polygon points="88 0 88 31 0 31 2 29 86 29 86 2 88 0" fill="#263238" opacity=".5"/><polygon points="88 0 86 2 2 2 2 29 0 31 0 0 88 0" fill="#fff" opacity=".5"/></g><g id="Text"><path d="M32.75,7.34c1.48,0,2.45.74,2.79,2.01h-1.35c-.21-.58-.69-.96-1.44-.96-1.01,0-1.68.75-1.68,2.07s.67,2.08,1.68,2.08c.75,0,1.21-.33,1.44-.96h1.35c-.34,1.19-1.31,2.01-2.79,2.01-1.74,0-2.97-1.23-2.97-3.13s1.23-3.12,2.97-3.12Z" fill="#fff"/><path d="M39.43,13.6c-1.73,0-3.04-1.23-3.04-3.13s1.36-3.12,3.09-3.12,3.09,1.22,3.09,3.12-1.41,3.13-3.15,3.13ZM39.43,12.51c.94,0,1.86-.67,1.86-2.05s-.89-2.04-1.83-2.04-1.79.66-1.79,2.04.81,2.05,1.76,2.05Z" fill="#fff"/><path d="M48.12,10.11c0-1.11-.61-1.68-1.52-1.68s-1.53.57-1.53,1.68v3.39h-1.25v-6.06h1.25v.69c.41-.5,1.08-.79,1.8-.79,1.42,0,2.49.89,2.49,2.59v3.58h-1.24v-3.39Z" fill="#fff"/><path d="M51.15,8.46h-.72v-1.02h.72v-1.51h1.26v1.51h1.47v1.02h-1.47v3.36c0,.45.18.64.7.64h.77v1.04h-.99c-1.08,0-1.75-.45-1.75-1.68v-3.36Z" fill="#fff"/><path d="M57.66,13.6c-1.74,0-3.03-1.23-3.03-3.13s1.23-3.12,3.03-3.12,2.95,1.2,2.95,2.98c0,.21-.01.41-.04.62h-4.63c.09,1,.8,1.61,1.73,1.61.77,0,1.2-.37,1.43-.85h1.35c-.34,1.06-1.3,1.9-2.78,1.9ZM55.94,9.92h3.36c-.02-.94-.76-1.53-1.69-1.53-.85,0-1.53.57-1.66,1.53Z" fill="#fff"/><path d="M67.32,13.5h-1.25v-.73c-.4.52-1.08.81-1.79.81-1.42,0-2.5-.89-2.5-2.58v-3.56h1.24v3.38c0,1.11.6,1.68,1.52,1.68s1.53-.57,1.53-1.68v-3.38h1.25v6.06ZM65.72,4.74v1.07l-2.43,1.2v-.92l2.43-1.34Z" fill="#fff"/><path d="M71.43,7.34c.79,0,1.63.37,2.09.95v-2.93h1.26v8.14h-1.26v-.91c-.39.55-1.11,1.01-2.1,1.01-1.6,0-2.86-1.29-2.86-3.16s1.26-3.1,2.87-3.1ZM71.68,8.43c-.93,0-1.84.7-1.84,2.01s.9,2.07,1.84,2.07,1.84-.74,1.84-2.05-.89-2.04-1.84-2.04Z" fill="#fff"/><path d="M79.06,13.6c-1.73,0-3.04-1.23-3.04-3.13s1.36-3.12,3.09-3.12,3.09,1.22,3.09,3.12-1.41,3.13-3.15,3.13ZM79.06,12.51c.94,0,1.86-.67,1.86-2.05s-.89-2.04-1.83-2.04-1.79.66-1.79,2.04.81,2.05,1.76,2.05Z" fill="#fff"/><path d="M33.16,16.36h1.25v2.78c.42-.51,1.1-.8,1.88-.8,1.35,0,2.41.89,2.41,2.59v3.58h-1.24v-3.39c0-1.11-.61-1.68-1.52-1.68s-1.53.57-1.53,1.68v3.39h-1.25v-8.14Z" fill="#fff"/><path d="M45.79,24.5h-1.25v-.73c-.4.52-1.08.81-1.79.81-1.42,0-2.5-.89-2.5-2.58v-3.56h1.24v3.38c0,1.11.6,1.68,1.52,1.68s1.53-.57,1.53-1.68v-3.38h1.25v6.06Z" fill="#fff"/><path d="M56.03,21.11c0-1.11-.6-1.68-1.52-1.68s-1.53.57-1.53,1.68v3.39h-1.24v-3.39c0-1.11-.61-1.68-1.52-1.68s-1.53.57-1.53,1.68v3.39h-1.25v-6.06h1.25v.69c.41-.5,1.07-.79,1.79-.79.96,0,1.76.41,2.18,1.2.37-.74,1.23-1.2,2.11-1.2,1.42,0,2.5.89,2.5,2.59v3.58h-1.24v-3.39Z" fill="#fff"/><path d="M61.31,18.34c1.02,0,1.73.48,2.1.98v-.88h1.26v6.06h-1.26v-.9c-.39.52-1.11,1-2.12,1-1.57,0-2.84-1.29-2.84-3.16s1.26-3.1,2.86-3.1ZM61.58,19.43c-.93,0-1.84.7-1.84,2.01s.9,2.07,1.84,2.07,1.84-.74,1.84-2.05-.89-2.04-1.84-2.04Z" fill="#fff"/><path d="M70.63,21.11c0-1.11-.61-1.68-1.52-1.68s-1.53.57-1.53,1.68v3.39h-1.25v-6.06h1.25v.69c.41-.5,1.08-.79,1.8-.79,1.42,0,2.49.89,2.49,2.59v3.58h-1.24v-3.39Z" fill="#fff"/><path d="M76.1,24.6c-1.73,0-3.04-1.23-3.04-3.13s1.36-3.12,3.09-3.12,3.09,1.22,3.09,3.12-1.41,3.13-3.15,3.13ZM76.1,23.51c.94,0,1.86-.67,1.86-2.05s-.89-2.04-1.83-2.04-1.79.66-1.79,2.04.81,2.05,1.76,2.05Z" fill="#fff"/></g><g id="Image"><circle cx="15.37" cy="15.5" r="10.3" fill="#ffcc80" stroke="#263238" stroke-miterlimit="10" stroke-width="1.5"/><rect x="7.55" y="13.8" width="2.54" height="3.4" rx="1.27" ry="1.27" fill="#263238"/><rect x="20.65" y="13.8" width="2.54" height="3.4" rx="1.27" ry="1.27" fill="#263238"/><path d="M12.3,15.5v3.84c0,1.7,1.37,3.07,3.07,3.07s3.07-1.37,3.07-3.07v-3.84h-6.14Z" fill="#ef5350" stroke="#263238" stroke-miterlimit="10" stroke-width="1.5"/></g></svg>