<?xml version="1.0" encoding="UTF-8"?><svg xmlns="http://www.w3.org/2000/svg" width="88" height="31" viewBox="0 0 88 31"><g id="Background"><rect width="88" height="31" fill="#4527a0"/></g><g id="_x33_D"><polygon points="88 0 88 31 0 31 2 29 86 29 86 2 88 0" fill="#263238" opacity=".5"/><polygon points="88 0 86 2 2 2 2 29 0 31 0 0 88 0" fill="#fff" opacity=".5"/></g><g id="Text"><path d="M40.61,13.05c-1.7,0-2.95-1.2-2.95-3.06s1.2-3.05,2.95-3.05,2.88,1.17,2.88,2.91c0,.2,0,.4-.04.6h-4.52c.09.98.78,1.57,1.69,1.57.75,0,1.17-.37,1.4-.83h1.32c-.33,1.03-1.27,1.86-2.72,1.86ZM38.93,9.47h3.28c-.02-.91-.74-1.49-1.65-1.49-.83,0-1.49.56-1.62,1.49Z" fill="#fff"/><path d="M50.05,12.96h-1.22v-.71c-.39.5-1.05.79-1.75.79-1.39,0-2.44-.87-2.44-2.52v-3.48h1.21v3.3c0,1.08.59,1.64,1.48,1.64s1.49-.56,1.49-1.64v-3.3h1.22v5.92Z" fill="#fff"/><path d="M58.65,9.65c0-1.08-.59-1.64-1.48-1.64s-1.49.56-1.49,1.64v3.31h-1.22v-5.92h1.22v.68c.4-.48,1.05-.77,1.76-.77,1.38,0,2.43.87,2.43,2.52v3.49h-1.21v-3.31Z" fill="#fff"/><path d="M63.8,6.94c1,0,1.69.47,2.05.96v-.86h1.24v5.92h-1.24v-.88c-.38.5-1.08.98-2.07.98-1.54,0-2.77-1.26-2.77-3.08s1.23-3.03,2.79-3.03ZM64.06,8.01c-.91,0-1.79.69-1.79,1.97s.88,2.02,1.79,2.02,1.79-.72,1.79-2-.87-1.99-1.79-1.99ZM63.71,5.17c.58,0,.82.47,1.25.47.24,0,.42-.14.46-.45h.69c-.12.85-.59,1.26-1.21,1.26-.58,0-.82-.48-1.25-.48-.24,0-.42.15-.46.46h-.69c.12-.85.59-1.26,1.21-1.26Z" fill="#fff"/><path d="M71.26,13.05c-1.69,0-2.96-1.2-2.96-3.06s1.33-3.05,3.02-3.05,3.02,1.19,3.02,3.05-1.38,3.06-3.07,3.06ZM71.26,11.99c.91,0,1.81-.66,1.81-2s-.87-1.99-1.78-1.99-1.75.64-1.75,1.99.79,2,1.72,2Z" fill="#fff"/><path d="M35.23,24.05c-1.42,0-2.42-.84-2.47-1.91h1.27c.04.48.5.88,1.18.88s1.08-.3,1.08-.71c0-1.16-3.44-.49-3.44-2.66,0-.95.88-1.71,2.28-1.71s2.22.72,2.29,1.9h-1.22c-.04-.52-.44-.87-1.11-.87s-1,.27-1,.67c0,1.19,3.34.53,3.4,2.66,0,1-.87,1.75-2.27,1.75Z" fill="#fff"/><path d="M41.38,24.05c-1.69,0-2.96-1.2-2.96-3.06s1.33-3.05,3.02-3.05,3.02,1.19,3.02,3.05-1.38,3.06-3.07,3.06ZM41.38,22.99c.91,0,1.81-.66,1.81-2s-.87-1.99-1.78-1.99-1.75.64-1.75,1.99.79,2,1.72,2Z" fill="#fff"/><path d="M51.02,23.96h-1.22v-.71c-.39.5-1.05.79-1.75.79-1.39,0-2.44-.87-2.44-2.52v-3.48h1.21v3.3c0,1.08.59,1.64,1.48,1.64s1.49-.56,1.49-1.64v-3.3h1.22v5.92Z" fill="#fff"/><path d="M56.65,23.96h-1.22v-5.92h1.22v.86c.34-.59.94-.96,1.77-.96v1.27h-.31c-.9,0-1.46.38-1.46,1.63v3.12Z" fill="#fff"/><path d="M62.12,24.05c-1.69,0-2.96-1.2-2.96-3.06s1.33-3.05,3.02-3.05,3.02,1.19,3.02,3.05-1.38,3.06-3.07,3.06ZM62.12,22.99c.91,0,1.81-.66,1.81-2s-.87-1.99-1.78-1.99-1.75.64-1.75,1.99.79,2,1.72,2Z" fill="#fff"/><path d="M69.69,17.94c1.57,0,2.78,1.2,2.78,3.03s-1.22,3.08-2.78,3.08c-.98,0-1.68-.44-2.06-.96v.86h-1.22v-7.95h1.22v2.91c.39-.54,1.13-.98,2.06-.98ZM69.42,19.01c-.91,0-1.79.72-1.79,1.99s.88,2,1.79,2,1.8-.74,1.8-2.02-.88-1.97-1.8-1.97Z" fill="#fff"/><path d="M76.24,24.05c-1.69,0-2.96-1.2-2.96-3.06s1.33-3.05,3.02-3.05,3.02,1.19,3.02,3.05-1.38,3.06-3.07,3.06ZM76.24,22.99c.91,0,1.82-.66,1.82-2s-.87-1.99-1.78-1.99-1.75.64-1.75,1.99.79,2,1.72,2ZM77.83,17.52l-1.54-.92-1.54.92v-.96l1.54-.89,1.54.89v.96Z" fill="#fff"/></g><g id="Image"><circle cx="15.37" cy="15.5" r="10.3" fill="#ffcc80" stroke="#263238" stroke-miterlimit="10" stroke-width="1.5"/><rect x="7.55" y="13.8" width="2.54" height="3.4" rx="1.27" ry="1.27" fill="#263238"/><rect x="20.65" y="13.8" width="2.54" height="3.4" rx="1.27" ry="1.27" fill="#263238"/><path d="M12.3,15.5v3.84c0,1.7,1.37,3.07,3.07,3.07s3.07-1.37,3.07-3.07v-3.84h-6.14Z" fill="#fff" stroke="#263238" stroke-miterlimit="10" stroke-width="1.5"/></g></svg>