<?xml version="1.0" encoding="UTF-8"?><svg xmlns="http://www.w3.org/2000/svg" width="88" height="31" viewBox="0 0 88 31"><g id="Background"><rect width="88" height="31" fill="#f8bbd0"/></g><g id="_x33_D"><polygon points="88 0 88 31 0 31 2 29 86 29 86 2 88 0" fill="#263238" opacity=".5"/><polygon points="88 0 86 2 2 2 2 29 0 31 0 0 88 0" fill="#fff" opacity=".5"/></g><g id="Text"><path d="M43.47,10.33c-1.42,0-2.48-1.01-2.48-2.57s1.01-2.56,2.48-2.56,2.41.98,2.41,2.44c0,.17,0,.33-.04.5h-3.79c.07.82.66,1.31,1.41,1.31.63,0,.98-.31,1.17-.69h1.11c-.28.86-1.06,1.56-2.28,1.56ZM42.06,7.32h2.75c-.02-.77-.62-1.25-1.39-1.25-.69,0-1.25.47-1.36,1.25Z" fill="#263238"/><path d="M48.69,10.33c-1.19,0-2.03-.7-2.07-1.6h1.06c.04.41.42.74.99.74s.91-.25.91-.59c0-.97-2.88-.42-2.88-2.23,0-.79.74-1.43,1.91-1.43s1.86.6,1.92,1.59h-1.03c-.04-.43-.37-.73-.93-.73s-.84.22-.84.56c0,1,2.8.44,2.85,2.23,0,.84-.73,1.47-1.9,1.47Z" fill="#263238"/><path d="M53.78,5.2c1.22,0,2.01.6,2.29,1.65h-1.11c-.17-.48-.57-.78-1.18-.78-.83,0-1.38.61-1.38,1.69s.55,1.7,1.38,1.7c.61,0,.99-.27,1.18-.78h1.11c-.28.97-1.07,1.65-2.29,1.65-1.42,0-2.43-1.01-2.43-2.57s1.01-2.56,2.43-2.56Z" fill="#263238"/><path d="M58.12,10.24h-1.03v-4.96h1.03v.72c.29-.5.78-.8,1.49-.8v1.06h-.26c-.76,0-1.22.32-1.22,1.37v2.61Z" fill="#263238"/><path d="M60.41,3.97c0-.37.29-.66.66-.66s.65.29.65.66-.29.66-.65.66-.66-.29-.66-.66ZM60.55,5.28h1.03v4.96h-1.03v-4.96Z" fill="#263238"/><path d="M63.09,6.12h-.58v-.84h.58v-1.23h1.04v1.23h1.21v.84h-1.21v2.75c0,.37.14.52.58.52h.63v.86h-.81c-.88,0-1.43-.37-1.43-1.38v-2.75Z" fill="#263238"/><path d="M68.42,10.33c-1.41,0-2.49-1.01-2.49-2.57s1.12-2.56,2.53-2.56,2.53,1,2.53,2.56-1.15,2.57-2.57,2.57ZM68.42,9.43c.76,0,1.52-.55,1.52-1.67s-.73-1.67-1.5-1.67-1.47.54-1.47,1.67.67,1.67,1.44,1.67Z" fill="#263238"/><path d="M43.01,13.2c1.31,0,2.33,1.01,2.33,2.54s-1.03,2.58-2.33,2.58c-.82,0-1.4-.41-1.73-.8v3.08h-1.03v-7.32h1.03v.73c.32-.41.92-.81,1.73-.81ZM42.79,14.09c-.77,0-1.5.6-1.5,1.67s.74,1.67,1.5,1.67,1.51-.62,1.51-1.69-.74-1.65-1.51-1.65Z" fill="#263238"/><path d="M48.51,18.33c-1.41,0-2.49-1.01-2.49-2.57s1.12-2.56,2.53-2.56,2.53,1,2.53,2.56-1.15,2.57-2.57,2.57ZM48.51,17.43c.76,0,1.52-.55,1.52-1.67s-.73-1.67-1.5-1.67-1.47.54-1.47,1.67.67,1.67,1.44,1.67Z" fill="#263238"/><path d="M53.13,18.24h-1.03v-4.96h1.03v.72c.29-.5.78-.8,1.49-.8v1.06h-.26c-.76,0-1.22.32-1.22,1.37v2.61Z" fill="#263238"/><path d="M62.39,18.24h-1.03v-.59c-.32.42-.88.67-1.47.67-1.16,0-2.04-.73-2.04-2.12v-2.92h1.02v2.76c0,.91.5,1.38,1.24,1.38s1.25-.47,1.25-1.38v-2.76h1.03v4.96Z" fill="#263238"/><path d="M70.77,15.47c0-.91-.5-1.38-1.24-1.38s-1.25.47-1.25,1.38v2.77h-1.02v-2.77c0-.91-.5-1.38-1.24-1.38s-1.25.47-1.25,1.38v2.77h-1.03v-4.96h1.03v.57c.33-.41.87-.65,1.47-.65.78,0,1.44.33,1.78.98.31-.6,1.01-.98,1.73-.98,1.16,0,2.04.73,2.04,2.12v2.93h-1.02v-2.77Z" fill="#263238"/><path d="M37.31,19.58h1.03v2.28c.34-.41.9-.66,1.54-.66,1.11,0,1.97.73,1.97,2.12v2.93h-1.02v-2.77c0-.91-.5-1.38-1.24-1.38s-1.25.47-1.25,1.38v2.77h-1.03v-6.66Z" fill="#263238"/><path d="M47.65,26.24h-1.03v-.59c-.32.42-.88.67-1.47.67-1.16,0-2.04-.73-2.04-2.12v-2.92h1.02v2.76c0,.91.5,1.38,1.24,1.38s1.25-.47,1.25-1.38v-2.76h1.03v4.96Z" fill="#263238"/><path d="M56.03,23.47c0-.91-.5-1.38-1.24-1.38s-1.25.47-1.25,1.38v2.77h-1.02v-2.77c0-.91-.5-1.38-1.24-1.38s-1.25.47-1.25,1.38v2.77h-1.03v-4.96h1.03v.57c.33-.41.87-.65,1.47-.65.78,0,1.44.33,1.78.98.31-.6,1.01-.98,1.73-.98,1.16,0,2.04.73,2.04,2.12v2.93h-1.02v-2.77Z" fill="#263238"/><path d="M60.35,21.2c.84,0,1.41.4,1.72.8v-.72h1.04v4.96h-1.04v-.74c-.32.42-.91.82-1.74.82-1.29,0-2.32-1.05-2.32-2.58s1.04-2.54,2.34-2.54ZM60.56,22.09c-.76,0-1.5.58-1.5,1.65s.74,1.69,1.5,1.69,1.5-.6,1.5-1.67-.73-1.67-1.5-1.67Z" fill="#263238"/><path d="M67.97,23.47c0-.91-.5-1.38-1.24-1.38s-1.25.47-1.25,1.38v2.77h-1.03v-4.96h1.03v.57c.33-.41.88-.65,1.48-.65,1.16,0,2.04.73,2.04,2.12v2.93h-1.02v-2.77Z" fill="#263238"/><path d="M72.44,26.33c-1.41,0-2.49-1.01-2.49-2.57s1.12-2.56,2.53-2.56,2.53,1,2.53,2.56-1.15,2.57-2.57,2.57ZM72.44,25.43c.76,0,1.52-.55,1.52-1.67s-.73-1.67-1.5-1.67-1.47.54-1.47,1.67.67,1.67,1.44,1.67Z" fill="#263238"/></g><g id="Image"><circle cx="15.37" cy="15.5" r="10.3" fill="#ffcc80" stroke="#263238" stroke-miterlimit="10" stroke-width="1.5"/><rect x="7.55" y="13.8" width="2.54" height="3.4" rx="1.27" ry="1.27" fill="#263238"/><rect x="20.65" y="13.8" width="2.54" height="3.4" rx="1.27" ry="1.27" fill="#263238"/><path d="M18.44,15.5c0,1.7-1.37,3.07-3.07,3.07s-3.07-1.37-3.07-3.07" fill="none" stroke="#263238" stroke-miterlimit="10" stroke-width="1.5"/></g></svg>